<svg width="36" height="36" viewBox="0 0 36 36" fill="none" xmlns="http://www.w3.org/2000/svg">
<path d="M8.25 9.62502V26.125C8.25 26.4897 8.10513 26.8394 7.84727 27.0973C7.58941 27.3552 7.23967 27.5 6.875 27.5C6.51033 27.5 6.16059 27.3552 5.90273 27.0973C5.64487 26.8394 5.5 26.4897 5.5 26.125V9.62502C5.5 9.26035 5.64487 8.91061 5.90273 8.65275C6.16059 8.39489 6.51033 8.25002 6.875 8.25002C7.23967 8.25002 7.58941 8.39489 7.84727 8.65275C8.10513 8.91061 8.25 9.26035 8.25 9.62502V9.62502ZM1.375 8.25002C1.01033 8.25003 0.660594 8.39489 0.402732 8.65275C0.144871 8.91062 3.64666e-06 9.26035 0 9.62502V26.125C0 26.4897 0.144866 26.8394 0.402728 27.0973C0.660591 27.3552 1.01033 27.5 1.375 27.5C1.73967 27.5 2.08941 27.3552 2.34727 27.0973C2.60513 26.8394 2.75 26.4897 2.75 26.125V9.62502C2.75 9.26035 2.60513 8.91062 2.34727 8.65275C2.08941 8.39489 1.73967 8.25003 1.375 8.25002V8.25002ZM35.3473 16.9028L18.8473 0.402769C18.655 0.210459 18.41 0.0794916 18.1433 0.0264283C17.8766 -0.026635 17.6001 0.000589359 17.3488 0.104659C17.0976 0.208728 16.8828 0.384968 16.7317 0.611091C16.5806 0.837214 16.5 1.10306 16.5 1.37502V8.25002H12.375C12.0103 8.25003 11.6606 8.39489 11.4027 8.65275C11.1449 8.91062 11 9.26035 11 9.62502V26.125C11 26.4897 11.1449 26.8394 11.4027 27.0973C11.6606 27.3552 12.0103 27.5 12.375 27.5H16.5V34.375C16.5 34.647 16.5806 34.9128 16.7317 35.139C16.8828 35.3651 17.0976 35.5413 17.3488 35.6454C17.6001 35.7495 17.8766 35.7767 18.1433 35.7236C18.41 35.6706 18.655 35.5396 18.8473 35.3473L35.3473 18.8473C35.6051 18.5894 35.7499 18.2397 35.7499 17.875C35.7499 17.5104 35.6051 17.1607 35.3473 16.9028V16.9028Z" fill="#673AB7"/>
</svg>
