<svg width="80" height="80" viewBox="0 0 80 80" fill="none" xmlns="http://www.w3.org/2000/svg">
<path d="M40 0C17.9445 0 0 17.9436 0 40C0 62.0564 17.9445 80 40 80C62.0564 80 80 62.0564 80 40C80 17.9436 62.0555 0 40 0ZM40 74.1606C21.1641 74.1606 5.83938 58.8359 5.83938 40C5.83938 21.1641 21.1641 5.83938 40 5.83938C58.8359 5.83938 74.1606 21.1639 74.1606 39.9991C74.1606 58.8359 58.8359 74.1606 40 74.1606Z" fill="white"/>
<path d="M53.6253 40H40.9733V22.4817C40.9733 20.8691 39.6663 19.562 38.0536 19.562C36.441 19.562 35.1339 20.8691 35.1339 22.4817V42.9197C35.1339 44.5324 36.441 45.8394 38.0536 45.8394H53.6253C55.238 45.8394 56.545 44.5324 56.545 42.9197C56.545 41.307 55.238 40 53.6253 40Z" fill="white"/>
</svg>
