<svg width="80" height="80" viewBox="0 0 80 80" fill="none" xmlns="http://www.w3.org/2000/svg">
<g clip-path="url(#clip0)">
<path d="M22.5 32.5C19.7344 32.5 17.5 34.7344 17.5 37.5C17.5 40.2656 19.7344 42.5 22.5 42.5C25.2656 42.5 27.5 40.2656 27.5 37.5C27.5 34.7344 25.2656 32.5 22.5 32.5ZM40 32.5C37.2344 32.5 35 34.7344 35 37.5C35 40.2656 37.2344 42.5 40 42.5C42.7656 42.5 45 40.2656 45 37.5C45 34.7344 42.7656 32.5 40 32.5ZM57.5 32.5C54.7343 32.5 52.5 34.7344 52.5 37.5C52.5 40.2656 54.7343 42.5 57.5 42.5C60.2656 42.5 62.5 40.2656 62.5 37.5C62.5 34.7344 60.2656 32.5 57.5 32.5ZM40 5C17.9062 5 -3.64343e-05 19.5469 -3.64343e-05 37.5C-3.64343e-05 44.9375 3.10933 51.75 8.26558 57.2344C5.93746 63.3906 1.09371 68.6094 1.01558 68.6719C-0.0156615 69.7656 -0.296911 71.3594 0.296839 72.7344C0.890589 74.1094 2.24996 75 3.74996 75C13.3594 75 20.9375 70.9844 25.4844 67.7656C30 69.1875 34.875 70 40 70C62.0937 70 80 55.4531 80 37.5C80 19.5469 62.0937 5 40 5ZM40 62.5C35.8281 62.5 31.7031 61.8594 27.75 60.6094L24.2031 59.4844L21.1562 61.6406C18.9219 63.2188 15.8594 64.9844 12.1719 66.1719C13.3125 64.2812 14.4219 62.1562 15.2812 59.8906L16.9375 55.5L13.7187 52.0938C10.8906 49.0781 7.49996 44.0938 7.49996 37.5C7.49996 23.7188 22.0781 12.5 40 12.5C57.9218 12.5 72.5 23.7188 72.5 37.5C72.5 51.2812 57.9218 62.5 40 62.5Z" fill="white"/>
</g>
<defs>
<clipPath id="clip0">
<rect width="80" height="80" fill="white"/>
</clipPath>
</defs>
</svg>
