<svg width="80" height="80" viewBox="0 0 80 80" fill="none" xmlns="http://www.w3.org/2000/svg">
<path d="M40 0C17.945 0 0 17.945 0 40C0 62.055 17.945 80 40 80C62.055 80 80 62.055 80 40C80 17.945 62.055 0 40 0ZM40 75C20.7 75 5 59.3 5 40C5 20.7 20.7 5 40 5C59.3 5 75 20.7 75 40C75 59.3 59.3 75 40 75Z" fill="white"/>
<path d="M40 37.5C35.935 37.5 32.5 35.21 32.5 32.5C32.5 29.79 35.935 27.5 40 27.5C42.3 27.5 44.43 28.22 45.84 29.47C46.87 30.385 48.445 30.3 49.37 29.26C50.29 28.23 50.195 26.65 49.16 25.73C47.41 24.175 45.06 23.125 42.5 22.71V20C42.5 18.62 41.38 17.5 40 17.5C38.62 17.5 37.5 18.62 37.5 20V22.7C31.8 23.63 27.5 27.67 27.5 32.5C27.5 38.015 33.11 42.5 40 42.5C44.065 42.5 47.5 44.79 47.5 47.5C47.5 50.21 44.065 52.5 40 52.5C37.7 52.5 35.57 51.78 34.16 50.53C33.13 49.61 31.55 49.7 30.63 50.74C29.71 51.77 29.805 53.35 30.84 54.27C32.59 55.83 34.94 56.875 37.5 57.295V60C37.5 61.38 38.62 62.5 40 62.5C41.38 62.5 42.5 61.38 42.5 60V57.3C48.2 56.37 52.5 52.33 52.5 47.5C52.5 41.985 46.89 37.5 40 37.5Z" fill="white"/>
</svg>
