<svg width="80" height="80" viewBox="0 0 80 80" fill="none" xmlns="http://www.w3.org/2000/svg">
<path d="M24 0L20.1904 5.71429H9.71429C6.54857 5.71429 4 8.26285 4 11.4286V74.2857C4 77.4514 6.54857 80 9.71429 80H61.1429C64.3086 80 66.8571 77.4514 66.8571 74.2857V48.5714L61.1429 54.2857V74.2857H9.71429V11.4286H16.3811L12.5714 17.1429H58.2857L54.4761 11.4286H61.1429V14.2857L66.3532 9.07541C65.4593 7.09047 63.4684 5.71429 61.1429 5.71429H50.6668L46.8571 0H24ZM26.8571 5.71429H44L46.8571 11.4286H24L26.8571 5.71429Z" fill="white"/>
<path fill-rule="evenodd" clip-rule="evenodd" d="M13 43.2L33.16 66L76 17.55L70.96 9L33.16 51.75L20.56 37.5L13 43.2Z" fill="white"/>
</svg>
