<svg width="45" height="45" viewBox="0 0 45 45" fill="none" xmlns="http://www.w3.org/2000/svg">
<path d="M22.395 6.125e-05C16.4458 0.0278243 10.7498 2.4106 6.55293 6.62716C2.35605 10.8437 -6.47794e-05 16.5508 1.33582e-09 22.5C1.33583e-09 28.4674 2.37053 34.1903 6.5901 38.4099C10.8097 42.6295 16.5326 45 22.5 45C28.4674 45 34.1903 42.6295 38.4099 38.4099C42.6295 34.1903 45 28.4674 45 22.5C45 16.5327 42.6295 10.8097 38.4099 6.59015C34.1903 2.37059 28.4674 6.125e-05 22.5 6.125e-05C22.465 -2.04167e-05 22.43 -2.04167e-05 22.395 6.125e-05ZM31.6987 13.545C31.8862 13.5413 32.3006 13.5882 32.5706 13.8075C32.75 13.9633 32.8645 14.1808 32.8913 14.4169C32.9212 14.5913 32.9588 14.9907 32.9287 15.3019C32.5913 18.8607 31.125 27.4931 30.3787 31.4775C30.0637 33.165 29.4431 33.7294 28.8412 33.7838C27.5362 33.9056 26.5444 32.9213 25.2788 32.0925C23.2987 30.7931 22.1794 29.985 20.2575 28.7175C18.0356 27.255 19.4756 26.4488 20.7413 25.1363C21.0731 24.7913 26.8294 19.5544 26.9419 19.08C26.955 19.02 26.9681 18.7988 26.8369 18.6825C26.7056 18.5663 26.5106 18.6057 26.37 18.6375C26.1712 18.6825 23.0081 20.775 16.8806 24.9094C15.9806 25.5282 15.1688 25.8282 14.4394 25.8094C13.6369 25.7944 12.0919 25.3575 10.9425 24.9844C9.5325 24.525 8.41313 24.2832 8.51062 23.505C8.56125 23.1 9.12 22.6857 10.185 22.2619C16.7437 19.4044 21.1163 17.52 23.3063 16.6107C29.5538 14.0119 30.8531 13.56 31.6987 13.545Z" fill="black"/>
</svg>
