<svg width="45" height="35" viewBox="0 0 45 35" fill="none" xmlns="http://www.w3.org/2000/svg">
<path d="M45 9.30533V28.875C45 32.2583 42.2171 35 38.7829 35H6.21711C4.56823 35 2.98688 34.3547 1.82095 33.206C0.655014 32.0574 0 30.4995 0 28.875V9.30533L21.7871 21.112C22.2312 21.3523 22.77 21.3523 23.2129 21.112L45 9.30417V9.30533ZM38.7829 2.63413e-08C40.4058 0.000148581 41.9644 0.625512 43.1256 1.74251C44.2868 2.8595 44.9587 4.37956 44.9976 5.978L22.5 18.1697L0.00236825 5.97683L0.00473706 5.87183C0.0710559 4.29247 0.754587 2.79951 1.91239 1.70517C3.0702 0.610833 4.61262 -0.000146478 6.21711 2.63413e-08H38.7829Z" fill="#9A67EA"/>
</svg>
