<svg width="45" height="45" viewBox="0 0 45 45" fill="none" xmlns="http://www.w3.org/2000/svg">
<path d="M12.1165 6.40483C13.0165 5.90733 14.0598 5.73308 15.0726 5.91109C16.0854 6.0891 17.0067 6.60863 17.6831 7.38319L17.9186 7.6754L20.0694 10.5978C20.7229 11.4847 21.1012 12.5441 21.1572 13.6443C21.2133 14.7445 20.9447 15.8369 20.3849 16.7856L20.1571 17.1385L18.3217 19.7732C17.9925 20.2538 18.6291 21.7025 20.685 23.971C22.5311 26.0131 23.8632 26.8654 24.4127 26.8092L24.5073 26.7889L24.6191 26.7418L28.8312 24.3914C29.3972 24.0751 30.0423 23.9284 30.6894 23.969C31.3365 24.0097 31.9583 24.2358 32.4802 24.6205L32.7371 24.8299L36.6103 28.3226C37.3701 29.0068 37.8742 29.9294 38.0397 30.9384C38.2051 31.9474 38.022 32.9826 37.5205 33.8737L37.3119 34.2086L36.361 35.5964C35.5088 36.8408 34.3173 37.8144 32.9279 38.4012C31.5385 38.9881 30.0099 39.1637 28.5237 38.9071C23.898 38.1082 19.1869 35.0214 14.3638 29.694C9.53084 24.3526 6.92307 19.3513 6.59568 14.6575C6.49706 13.2383 6.78473 11.8189 7.42812 10.5501C8.07152 9.28127 9.04661 8.21043 10.2498 7.45134L10.644 7.21914L12.1165 6.40483Z" fill="#FFB300"/>
</svg>
