<svg width="478" height="562" viewBox="0 0 478 562" fill="none" xmlns="http://www.w3.org/2000/svg">
<path d="M347.545 0.604478H347.15V1V303.772L129.412 0.769191L129.294 0.604478H129.091H32H31.6045V1V561V561.396H32H161.455H161.85V561V258.228L379.588 561.231L379.706 561.396H379.909H477H477.396V561V1V0.604478H477H347.545Z" stroke="url(#paint0_linear)" stroke-width="0.791045"/>
<rect y="173.486" width="115.825" height="52.3793" transform="rotate(-10.1875 0 173.486)" fill="#FFE54C"/>
<path d="M37.4952 201.268C35.864 201.561 34.4013 201.258 33.1071 200.358C31.8273 199.455 31.0434 198.203 30.7554 196.6C30.4649 194.984 30.7637 193.537 31.6518 192.259C32.5517 190.965 33.8173 190.171 35.4485 189.878C36.5023 189.689 37.5076 189.769 38.4645 190.119C39.4215 190.468 40.193 191.03 40.7791 191.804L38.9755 193.335C38.6367 192.859 38.1887 192.523 37.6316 192.325C37.0863 192.11 36.4889 192.061 35.8393 192.177C34.8866 192.349 34.1438 192.817 33.6109 193.584C33.0925 194.347 32.9202 195.213 33.094 196.18C33.2678 197.147 33.7306 197.899 34.4825 198.434C35.2488 198.967 36.1084 199.148 37.0611 198.976C37.6963 198.862 38.2392 198.608 38.69 198.214C39.1552 197.818 39.4723 197.344 39.6414 196.792L41.8613 197.577C41.5551 198.527 41.0142 199.332 40.2389 199.992C39.4636 200.653 38.549 201.078 37.4952 201.268ZM50.4668 187.47L52.8054 187.05L54.7509 197.876L52.4124 198.297L52.1322 196.738C51.4722 198.123 50.3193 198.963 48.6737 199.259C47.1868 199.526 45.8179 199.206 44.567 198.298C43.3135 197.376 42.544 196.121 42.2587 194.533C41.9707 192.931 42.2551 191.486 43.1117 190.2C43.9683 188.913 45.1401 188.137 46.6269 187.869C48.2726 187.574 49.6446 187.953 50.7431 189.007L50.4668 187.47ZM46.0191 196.428C46.7854 196.961 47.6594 197.139 48.641 196.963C49.6226 196.786 50.3798 196.315 50.9127 195.548C51.443 194.768 51.6186 193.879 51.4396 192.883C51.2606 191.887 50.7879 191.123 50.0216 190.59C49.2527 190.043 48.3774 189.857 47.3958 190.034C46.4142 190.21 45.6583 190.689 45.128 191.469C44.5951 192.236 44.4182 193.117 44.5972 194.113C44.7762 195.109 45.2502 195.881 46.0191 196.428ZM57.0343 184.725L56.6685 182.69L62.7314 181.6L63.0972 183.636L57.0343 184.725ZM63.3696 185.151L65.1668 184.828L67.1123 195.655L64.8171 196.067L63.5797 189.182L59.2739 197.064L57.4767 197.386L55.5311 186.56L57.8263 186.147L59.0598 193.012L63.3696 185.151ZM76.1517 182.854L76.5564 185.106L73.0269 185.741L74.5678 194.315L72.2292 194.735L70.6884 186.161L67.1372 186.799L66.7326 184.547L76.1517 182.854ZM83.1159 185.403C84.2708 185.195 85.276 185.357 86.1315 185.889C86.9844 186.406 87.5069 187.199 87.6988 188.267C87.8882 189.321 87.6745 190.246 87.0576 191.042C86.4407 191.839 85.5548 192.341 84.4 192.548L79.6796 193.397L77.734 182.57L80.0726 182.15L80.7341 185.831L83.1159 185.403ZM87.6945 180.78L90.033 180.36L91.9786 191.186L89.6401 191.607L87.6945 180.78ZM84.0442 190.444C84.5062 190.361 84.8641 190.155 85.1179 189.826C85.3862 189.495 85.4814 189.113 85.4036 188.68C85.3232 188.232 85.1008 187.907 84.7366 187.704C84.3841 187.485 83.977 187.416 83.515 187.499L81.1115 187.931L81.6407 190.876L84.0442 190.444Z" fill="black"/>
<rect x="96.9246" y="465" width="122.193" height="55.2593" rx="26.4622" transform="rotate(6.15472 96.9246 465)" fill="#303030"/>
<path d="M126.059 492.2L125.141 500.712L123.303 500.514L124.03 493.773L121.187 493.466L120.845 496.632C120.7 497.983 120.301 498.91 119.65 499.414C118.998 499.918 118.133 500.06 117.055 499.84L117.24 498.121C117.753 498.268 118.156 498.202 118.45 497.924C118.744 497.646 118.933 497.121 119.016 496.349L119.539 491.497L126.059 492.2ZM129.105 497.627C129.172 498.288 129.43 498.821 129.88 499.226C130.331 499.619 130.909 499.853 131.613 499.929C132.589 500.034 133.359 499.761 133.922 499.11L135.342 500.159C134.369 501.306 133.059 501.79 131.414 501.613C130.029 501.463 128.957 500.923 128.196 499.991C127.436 499.048 127.127 497.93 127.266 496.636C127.403 495.365 127.937 494.349 128.869 493.588C129.802 492.816 130.927 492.501 132.243 492.643C133.492 492.778 134.466 493.325 135.166 494.285C135.878 495.245 136.166 496.35 136.032 497.598C136.011 497.791 135.96 498.044 135.881 498.357L129.105 497.627ZM129.25 496.127L134.255 496.666C134.205 495.961 133.972 495.407 133.556 495.006C133.151 494.607 132.648 494.375 132.046 494.31C131.365 494.236 130.778 494.362 130.283 494.688C129.789 495.014 129.444 495.493 129.25 496.127ZM143.847 494.119L145.686 494.317L144.768 502.829L142.929 502.63L143.295 499.243L139.396 498.822L139.031 502.21L137.192 502.012L138.11 493.5L139.949 493.698L139.583 497.086L143.482 497.506L143.847 494.119ZM154.579 502.13L155.72 502.253L155.286 506.271L153.482 506.076L153.728 503.795L147.889 503.165L147.643 505.446L145.838 505.252L146.271 501.234L147.31 501.346C147.911 500.665 148.283 499.666 148.425 498.349L148.823 494.655L155.31 495.355L154.579 502.13ZM149.336 501.565L152.774 501.936L153.323 496.845L150.446 496.535L150.23 498.544C150.099 499.758 149.801 500.765 149.336 501.565ZM164.106 496.303L165.519 496.456L164.601 504.968L162.797 504.773L163.381 499.359L158.439 504.303L157.026 504.151L157.944 495.639L159.748 495.833L159.166 501.23L164.106 496.303ZM173.39 497.304L175.228 497.503L174.31 506.014L172.472 505.816L172.837 502.428L168.939 502.008L168.573 505.396L166.735 505.198L167.653 496.686L169.491 496.884L169.126 500.272L173.024 500.692L173.39 497.304ZM183.065 498.348L182.874 500.118L179.009 499.701L178.282 506.443L176.444 506.245L177.361 497.733L183.065 498.348ZM190.473 499.146L191.886 499.299L190.968 507.811L189.164 507.616L189.748 502.203L184.806 507.146L183.393 506.994L184.311 498.482L186.115 498.677L185.533 504.073L190.473 499.146Z" fill="#FFE54C"/>
<path d="M351.569 116.619L354.605 121.774C356.038 124.207 359.322 124.755 361.467 122.919L366.012 119.029C367.403 117.84 369.56 118.58 369.926 120.373L371.124 126.234C371.689 129.001 374.617 130.585 377.243 129.545L382.804 127.342C384.505 126.668 386.305 128.069 386.07 129.884L385.299 135.816C384.936 138.617 387.19 141.066 390.011 140.935L395.987 140.657C397.815 140.572 399.062 142.481 398.25 144.121L395.596 149.482C394.342 152.013 395.68 155.061 398.39 155.853L404.132 157.531C405.889 158.044 406.449 160.255 405.148 161.542L400.897 165.751C398.89 167.737 399.164 171.055 401.471 172.684L406.357 176.135C407.852 177.191 407.664 179.464 406.016 180.259L400.628 182.859C398.085 184.086 397.267 187.313 398.92 189.603L402.421 194.454C403.492 195.938 402.576 198.026 400.759 198.243L394.819 198.953C392.015 199.288 390.194 202.075 391.014 204.778L392.75 210.502C393.281 212.253 391.736 213.931 389.947 213.546L384.099 212.289C381.338 211.695 378.711 213.74 378.609 216.562L378.392 222.54C378.326 224.369 376.32 225.455 374.753 224.51L369.629 221.422C367.211 219.964 364.062 221.044 363.049 223.681L360.903 229.264C360.247 230.973 357.997 231.348 356.821 229.945L352.979 225.361C351.165 223.197 347.835 223.197 346.021 225.361L342.179 229.945C341.003 231.348 338.753 230.973 338.097 229.264L335.951 223.681C334.938 221.044 331.789 219.964 329.371 221.422L324.247 224.51C322.68 225.455 320.674 224.369 320.608 222.54L320.391 216.562C320.289 213.74 317.662 211.695 314.901 212.289L309.053 213.546C307.264 213.931 305.719 212.253 306.25 210.502L307.986 204.778C308.806 202.075 306.985 199.288 304.181 198.953L298.241 198.243C296.424 198.026 295.508 195.938 296.579 194.454L300.08 189.603C301.733 187.313 300.915 184.086 298.372 182.859L292.984 180.259C291.336 179.464 291.148 177.191 292.643 176.135L297.529 172.684C299.836 171.055 300.11 167.737 298.103 165.751L293.852 161.542C292.551 160.255 293.111 158.044 294.868 157.531L300.61 155.853C303.32 155.061 304.658 152.013 303.404 149.482L300.75 144.121C299.938 142.481 301.185 140.572 303.013 140.657L308.989 140.935C311.81 141.066 314.064 138.617 313.701 135.816L312.93 129.884C312.695 128.069 314.495 126.668 316.196 127.342L321.757 129.545C324.383 130.585 327.311 129.001 327.876 126.234L329.074 120.373C329.44 118.58 331.597 117.84 332.988 119.029L337.533 122.919C339.678 124.755 342.962 124.207 344.395 121.774L347.431 116.619C348.36 115.042 350.64 115.042 351.569 116.619Z" fill="#673AB7" stroke="white" stroke-width="2.13793"/>
<path d="M315.011 175.019L316.178 174.809L317.441 181.838L315.951 182.106L315.147 177.635L312.352 182.753L311.185 182.962L309.922 175.933L311.412 175.665L312.213 180.122L315.011 175.019ZM318.664 177.961L318.402 176.499L323.603 175.564L323.866 177.026L318.664 177.961ZM332.276 171.916L333.539 178.945L332.063 179.211L331.232 174.585L329.786 178.169L329.603 178.201L327.017 175.357L327.845 179.968L326.369 180.234L325.106 173.205L326.652 172.927L329.274 175.808L330.729 172.194L332.276 171.916ZM339.597 170.6L341.115 170.328L342.378 177.357L340.86 177.63L340.678 176.617C340.25 177.517 339.501 178.063 338.433 178.255C337.467 178.428 336.579 178.22 335.766 177.631C334.953 177.032 334.453 176.217 334.268 175.186C334.081 174.146 334.265 173.208 334.822 172.373C335.378 171.538 336.138 171.033 337.104 170.86C338.172 170.668 339.063 170.914 339.776 171.599L339.597 170.6ZM336.709 176.416C337.207 176.762 337.774 176.878 338.411 176.764C339.049 176.649 339.54 176.343 339.886 175.845C340.231 175.339 340.345 174.762 340.228 174.115C340.112 173.468 339.805 172.972 339.308 172.626C338.809 172.271 338.24 172.15 337.603 172.265C336.966 172.379 336.475 172.69 336.131 173.197C335.785 173.695 335.67 174.267 335.786 174.913C335.902 175.56 336.21 176.061 336.709 176.416ZM347.594 169.163L347.857 170.625L344.666 171.199L345.666 176.766L344.148 177.039L342.885 170.01L347.594 169.163ZM353.916 168.027L355.434 167.754L356.698 174.784L355.179 175.056L354.997 174.044C354.569 174.944 353.82 175.489 352.752 175.681C351.787 175.855 350.898 175.647 350.086 175.058C349.272 174.459 348.772 173.644 348.587 172.613C348.4 171.573 348.585 170.635 349.141 169.8C349.697 168.964 350.458 168.46 351.423 168.287C352.491 168.095 353.382 168.341 354.095 169.025L353.916 168.027ZM351.028 173.843C351.526 174.189 352.093 174.305 352.731 174.19C353.368 174.076 353.86 173.77 354.206 173.272C354.55 172.765 354.664 172.189 354.548 171.542C354.431 170.895 354.125 170.399 353.627 170.053C353.128 169.698 352.56 169.577 351.922 169.692C351.285 169.806 350.794 170.117 350.45 170.624C350.104 171.121 349.989 171.693 350.105 172.34C350.221 172.987 350.529 173.488 351.028 173.843ZM361.771 170.157C362.581 170.359 363.056 170.85 363.196 171.628C363.304 172.227 363.15 172.773 362.736 173.263C362.321 173.754 361.677 174.077 360.806 174.234C359.391 174.488 358.333 174.098 357.635 173.062L358.74 172.109C359.12 172.766 359.731 173.019 360.575 172.868C360.968 172.797 361.263 172.662 361.46 172.462C361.654 172.253 361.727 172.013 361.678 171.741C361.635 171.497 361.511 171.321 361.308 171.212C361.103 171.094 360.841 171.064 360.522 171.121L359.524 171.301L359.284 169.965L360.029 169.831C360.338 169.776 360.565 169.662 360.708 169.491C360.859 169.31 360.912 169.092 360.867 168.839C360.823 168.595 360.689 168.416 360.465 168.302C360.24 168.178 359.963 168.145 359.635 168.204C358.932 168.33 358.5 168.727 358.34 169.395L356.976 168.914C357.312 167.77 358.109 167.085 359.364 166.86C360.152 166.718 360.811 166.808 361.343 167.128C361.882 167.437 362.203 167.878 362.306 168.45C362.432 169.153 362.254 169.722 361.771 170.157ZM368.609 165.387L369.775 165.177L371.039 172.206L369.548 172.474L368.745 168.004L365.949 173.121L364.783 173.331L363.519 166.302L365.01 166.034L365.81 170.49L368.609 165.387ZM376.275 164.009L377.793 163.736L379.056 170.766L377.538 171.039L377.035 168.241L373.816 168.819L374.319 171.617L372.8 171.89L371.537 164.861L373.055 164.588L373.558 167.385L376.778 166.807L376.275 164.009ZM383.049 165.259C383.799 165.124 384.451 165.23 385.007 165.575C385.561 165.911 385.9 166.425 386.024 167.119C386.147 167.803 386.009 168.404 385.608 168.921C385.208 169.438 384.632 169.764 383.883 169.898L380.818 170.449L379.555 163.42L381.073 163.147L381.503 165.537L383.049 165.259ZM386.022 162.258L387.54 161.985L388.803 169.014L387.285 169.287L386.022 162.258ZM383.652 168.532C383.952 168.478 384.184 168.345 384.349 168.131C384.523 167.916 384.585 167.668 384.534 167.387C384.482 167.096 384.338 166.885 384.101 166.753C383.872 166.611 383.608 166.566 383.308 166.62L381.748 166.901L382.091 168.813L383.652 168.532Z" fill="white"/>
<path d="M222 416.667L249.175 400L276.351 416.667L249.175 433.333L222 416.667Z" fill="#FFE54C"/>
<path d="M244.216 416.667L271.392 400L298.567 416.667L271.392 433.333L244.216 416.667Z" fill="#FFE54C"/>
<path d="M266.433 416.667L293.608 400L320.784 416.667L293.608 433.333L266.433 416.667Z" fill="#FFE54C"/>
<path d="M288.649 416.667L315.825 400L343 416.667L315.825 433.333L288.649 416.667Z" fill="#FFE54C"/>
<path d="M222 433.333L249.175 416.667L276.351 433.333L249.175 450L222 433.333Z" fill="#FFE54C"/>
<path d="M244.216 433.333L271.392 416.667L298.567 433.333L271.392 450L244.216 433.333Z" fill="#FFE54C"/>
<path d="M266.433 433.333L293.608 416.667L320.784 433.333L293.608 450L266.433 433.333Z" fill="#FFE54C"/>
<path d="M288.649 433.333L315.825 416.667L343 433.333L315.825 450L288.649 433.333Z" fill="#FFE54C"/>
<path d="M311 416.667L338.175 400L365.351 416.667L338.175 433.333L311 416.667Z" fill="#FFE54C"/>
<path d="M333.216 416.667L360.392 400L387.567 416.667L360.392 433.333L333.216 416.667Z" fill="#FFE54C"/>
<path d="M355.433 416.667L382.608 400L409.784 416.667L382.608 433.333L355.433 416.667Z" fill="#FFE54C"/>
<path d="M377.649 416.667L404.825 400L432 416.667L404.825 433.333L377.649 416.667Z" fill="#FFE54C"/>
<path d="M311 433.333L338.175 416.667L365.351 433.333L338.175 450L311 433.333Z" fill="#FFE54C"/>
<path d="M333.216 433.333L360.392 416.667L387.567 433.333L360.392 450L333.216 433.333Z" fill="#FFE54C"/>
<path d="M355.433 433.333L382.608 416.667L409.784 433.333L382.608 450L355.433 433.333Z" fill="#FFE54C"/>
<path d="M377.649 433.333L404.825 416.667L432 433.333L404.825 450L377.649 433.333Z" fill="#FFE54C"/>
<path d="M252.395 423.001C253.466 423.001 254.381 423.401 255.14 424.201C255.899 424.991 256.278 425.958 256.278 427.102C256.278 428.256 255.899 429.228 255.14 430.018C254.381 430.808 253.466 431.203 252.395 431.203C251.21 431.203 250.301 430.766 249.666 429.893V434.119H247.982V423.203H249.666V424.326C250.301 423.442 251.21 423.001 252.395 423.001ZM250.368 428.895C250.836 429.363 251.423 429.597 252.13 429.597C252.837 429.597 253.425 429.363 253.892 428.895C254.36 428.417 254.594 427.819 254.594 427.102C254.594 426.384 254.36 425.792 253.892 425.324C253.425 424.846 252.837 424.607 252.13 424.607C251.423 424.607 250.836 424.846 250.368 425.324C249.9 425.792 249.666 426.384 249.666 427.102C249.666 427.819 249.9 428.417 250.368 428.895ZM263.98 423.203H265.664V431H263.98V429.877C263.345 430.761 262.436 431.203 261.251 431.203C260.18 431.203 259.265 430.808 258.506 430.018C257.747 429.217 257.368 428.245 257.368 427.102C257.368 425.948 257.747 424.976 258.506 424.186C259.265 423.396 260.18 423.001 261.251 423.001C262.436 423.001 263.345 423.437 263.98 424.31V423.203ZM259.754 428.895C260.222 429.363 260.809 429.597 261.516 429.597C262.223 429.597 262.81 429.363 263.278 428.895C263.746 428.417 263.98 427.819 263.98 427.102C263.98 426.384 263.746 425.792 263.278 425.324C262.81 424.846 262.223 424.607 261.516 424.607C260.809 424.607 260.222 424.846 259.754 425.324C259.286 425.792 259.052 426.384 259.052 427.102C259.052 427.819 259.286 428.417 259.754 428.895ZM272.008 427.008C272.84 427.382 273.256 428.001 273.256 428.864C273.256 429.529 272.986 430.085 272.445 430.532C271.904 430.979 271.151 431.203 270.184 431.203C268.614 431.203 267.554 430.579 267.003 429.331L268.375 428.521C268.656 429.3 269.264 429.69 270.2 429.69C270.636 429.69 270.979 429.602 271.229 429.425C271.478 429.238 271.603 428.994 271.603 428.692C271.603 428.422 271.504 428.209 271.307 428.053C271.109 427.886 270.834 427.803 270.48 427.803H269.373V426.322H270.2C270.543 426.322 270.808 426.244 270.995 426.088C271.192 425.922 271.291 425.698 271.291 425.418C271.291 425.147 271.182 424.929 270.964 424.763C270.745 424.586 270.454 424.497 270.09 424.497C269.311 424.497 268.77 424.841 268.469 425.527L267.096 424.747C267.679 423.583 268.666 423.001 270.059 423.001C270.932 423.001 271.624 423.224 272.133 423.671C272.653 424.108 272.913 424.643 272.913 425.277C272.913 426.057 272.611 426.634 272.008 427.008ZM279.045 423.001C280.115 423.001 281.03 423.401 281.789 424.201C282.548 424.991 282.927 425.958 282.927 427.102C282.927 428.256 282.548 429.228 281.789 430.018C281.03 430.808 280.115 431.203 279.045 431.203C277.859 431.203 276.95 430.766 276.316 429.893V434.119H274.632V423.203H276.316V424.326C276.95 423.442 277.859 423.001 279.045 423.001ZM277.017 428.895C277.485 429.363 278.073 429.597 278.779 429.597C279.486 429.597 280.074 429.363 280.541 428.895C281.009 428.417 281.243 427.819 281.243 427.102C281.243 426.384 281.009 425.792 280.541 425.324C280.074 424.846 279.486 424.607 278.779 424.607C278.073 424.607 277.485 424.846 277.017 425.324C276.55 425.792 276.316 426.384 276.316 427.102C276.316 427.819 276.55 428.417 277.017 428.895ZM290.629 423.203H292.313V431H290.629V429.877C289.995 430.761 289.085 431.203 287.9 431.203C286.829 431.203 285.914 430.808 285.155 430.018C284.396 429.217 284.017 428.245 284.017 427.102C284.017 425.948 284.396 424.976 285.155 424.186C285.914 423.396 286.829 423.001 287.9 423.001C289.085 423.001 289.995 423.437 290.629 424.31V423.203ZM286.403 428.895C286.871 429.363 287.458 429.597 288.165 429.597C288.872 429.597 289.459 429.363 289.927 428.895C290.395 428.417 290.629 427.819 290.629 427.102C290.629 426.384 290.395 425.792 289.927 425.324C289.459 424.846 288.872 424.607 288.165 424.607C287.458 424.607 286.871 424.846 286.403 425.324C285.935 425.792 285.701 426.384 285.701 427.102C285.701 427.819 285.935 428.417 286.403 428.895ZM297.893 431.203C296.698 431.203 295.721 430.818 294.962 430.049C294.213 429.269 293.839 428.276 293.839 427.07C293.839 425.75 294.037 424.731 294.432 424.014C294.827 423.286 295.627 422.626 296.833 422.034C297.031 421.94 297.322 421.805 297.706 421.628C298.101 421.452 298.372 421.327 298.517 421.254C298.663 421.171 298.845 421.057 299.063 420.911C299.281 420.755 299.442 420.594 299.546 420.428C299.65 420.251 299.733 420.043 299.796 419.804L301.168 420.599C301.127 420.828 301.059 421.041 300.965 421.238C300.872 421.426 300.737 421.602 300.56 421.769C300.383 421.935 300.227 422.07 300.092 422.174C299.967 422.278 299.754 422.403 299.453 422.548C299.151 422.694 298.928 422.798 298.782 422.86C298.647 422.923 298.387 423.032 298.003 423.188C297.316 423.458 296.812 423.739 296.49 424.03C296.178 424.31 295.96 424.664 295.835 425.09C296.459 424.383 297.306 424.03 298.377 424.03C299.292 424.03 300.087 424.357 300.763 425.012C301.449 425.667 301.792 426.514 301.792 427.554C301.792 428.614 301.428 429.487 300.7 430.174C299.983 430.86 299.047 431.203 297.893 431.203ZM297.878 429.628C298.533 429.628 299.068 429.435 299.484 429.051C299.9 428.656 300.108 428.157 300.108 427.554C300.108 426.94 299.9 426.436 299.484 426.041C299.079 425.646 298.548 425.449 297.893 425.449C297.311 425.449 296.786 425.636 296.319 426.01C295.851 426.374 295.617 426.863 295.617 427.476C295.617 428.1 295.835 428.614 296.272 429.02C296.708 429.425 297.244 429.628 297.878 429.628ZM306.803 431.203C305.66 431.203 304.688 430.808 303.887 430.018C303.087 429.228 302.687 428.256 302.687 427.102C302.687 425.948 303.087 424.976 303.887 424.186C304.688 423.396 305.66 423.001 306.803 423.001C307.957 423.001 308.929 423.396 309.719 424.186C310.52 424.976 310.92 425.948 310.92 427.102C310.92 428.256 310.52 429.228 309.719 430.018C308.929 430.808 307.957 431.203 306.803 431.203ZM305.072 428.864C305.54 429.331 306.117 429.565 306.803 429.565C307.489 429.565 308.066 429.331 308.534 428.864C309.002 428.396 309.236 427.809 309.236 427.102C309.236 426.395 309.002 425.807 308.534 425.34C308.066 424.872 307.489 424.638 306.803 424.638C306.117 424.638 305.54 424.872 305.072 425.34C304.605 425.807 304.371 426.395 304.371 427.102C304.371 427.809 304.605 428.396 305.072 428.864ZM318.095 423.203V424.825H315.553V431H313.869V424.825H311.312V423.203H318.095ZM326.127 431H324.115L320.919 427.398V431H319.235V423.203H320.919V426.649L323.944 423.203H326.002L322.572 427.024L326.127 431ZM332.81 423.203H334.495V431H332.81V429.877C332.176 430.761 331.267 431.203 330.082 431.203C329.011 431.203 328.096 430.808 327.337 430.018C326.578 429.217 326.199 428.245 326.199 427.102C326.199 425.948 326.578 424.976 327.337 424.186C328.096 423.396 329.011 423.001 330.082 423.001C331.267 423.001 332.176 423.437 332.81 424.31V423.203ZM328.585 428.895C329.052 429.363 329.64 429.597 330.347 429.597C331.054 429.597 331.641 429.363 332.109 428.895C332.577 428.417 332.81 427.819 332.81 427.102C332.81 426.384 332.577 425.792 332.109 425.324C331.641 424.846 331.054 424.607 330.347 424.607C329.64 424.607 329.052 424.846 328.585 425.324C328.117 425.792 327.883 426.384 327.883 427.102C327.883 427.819 328.117 428.417 328.585 428.895ZM347.295 423.203V431H345.611V424.794H342.04V431H340.356V423.203H347.295ZM352.929 431.203C351.786 431.203 350.814 430.808 350.013 430.018C349.213 429.228 348.813 428.256 348.813 427.102C348.813 425.948 349.213 424.976 350.013 424.186C350.814 423.396 351.786 423.001 352.929 423.001C354.083 423.001 355.055 423.396 355.845 424.186C356.646 424.976 357.046 425.948 357.046 427.102C357.046 428.256 356.646 429.228 355.845 430.018C355.055 430.808 354.083 431.203 352.929 431.203ZM351.198 428.864C351.666 429.331 352.243 429.565 352.929 429.565C353.615 429.565 354.192 429.331 354.66 428.864C355.128 428.396 355.362 427.809 355.362 427.102C355.362 426.395 355.128 425.807 354.66 425.34C354.192 424.872 353.615 424.638 352.929 424.638C352.243 424.638 351.666 424.872 351.198 425.34C350.731 425.807 350.497 426.395 350.497 427.102C350.497 427.809 350.731 428.396 351.198 428.864ZM365.125 429.409H366.17V433.09H364.517V431H359.169V433.09H357.516V429.409H358.467C358.945 428.734 359.184 427.793 359.184 426.587V423.203H365.125V429.409ZM360.322 429.409H363.472V424.747H360.837V426.587C360.837 427.699 360.666 428.64 360.322 429.409ZM378.329 431H376.317L373.121 427.398V431H371.436V423.203H373.121V426.649L376.146 423.203H378.204L374.773 427.024L378.329 431ZM386.042 423.203V431H384.358V424.825H381.754V427.725C381.754 428.962 381.484 429.841 380.943 430.361C380.402 430.88 379.633 431.094 378.635 431V429.425C379.113 429.508 379.472 429.409 379.711 429.129C379.95 428.848 380.07 428.354 380.07 427.647V423.203H386.042ZM394.959 423.001C396.103 423.001 397.075 423.396 397.875 424.186C398.676 424.976 399.076 425.948 399.076 427.102C399.076 428.256 398.676 429.228 397.875 430.018C397.075 430.808 396.103 431.203 394.959 431.203C393.951 431.203 393.078 430.896 392.34 430.283C391.612 429.659 391.16 428.864 390.983 427.897H389.689V431H388.005V423.203H389.689V426.306H390.983C391.16 425.34 391.612 424.549 392.34 423.936C393.078 423.312 393.951 423.001 394.959 423.001ZM393.228 428.864C393.696 429.331 394.273 429.565 394.959 429.565C395.645 429.565 396.222 429.331 396.69 428.864C397.158 428.396 397.392 427.809 397.392 427.102C397.392 426.395 397.158 425.807 396.69 425.34C396.222 424.872 395.645 424.638 394.959 424.638C394.273 424.638 393.696 424.872 393.228 425.34C392.761 425.807 392.527 426.395 392.527 427.102C392.527 427.809 392.761 428.396 393.228 428.864ZM405.186 423.203H406.87V431H405.186V428.365C404.563 428.593 403.908 428.708 403.222 428.708C402.255 428.708 401.491 428.469 400.929 427.99C400.368 427.512 400.087 426.811 400.087 425.885V423.203H401.771V425.729C401.771 426.665 402.328 427.133 403.44 427.133C404.095 427.133 404.677 427.013 405.186 426.774V423.203Z" fill="#303030"/>
<defs>
<linearGradient id="paint0_linear" x1="389" y1="561" x2="389" y2="94.9929" gradientUnits="userSpaceOnUse">
<stop stop-color="#EEEEEE"/>
<stop offset="1" stop-color="#EEEEEE" stop-opacity="0"/>
</linearGradient>
</defs>
</svg>
